<?xml version="1.0" standalone="no"?>
<!DOCTYPE svg PUBLIC "-//W3C//DTD SVG 20010904//EN"
 "http://www.w3.org/TR/2001/REC-SVG-20010904/DTD/svg10.dtd">
<svg version="1.0" xmlns="http://www.w3.org/2000/svg"
 width="500.000000pt" height="500.000000pt" viewBox="0 0 500.000000 500.000000"
 preserveAspectRatio="xMidYMid meet">

<g transform="translate(0.000000,500.000000) scale(0.100000,-0.100000)"
fill="#000000" stroke="none">
<path d="M356 3643 c-6 -14 -5 -15 5 -6 7 7 10 15 7 18 -3 3 -9 -2 -12 -12z"/>
<path d="M2602 3530 c0 -14 2 -19 5 -12 2 6 2 18 0 25 -3 6 -5 1 -5 -13z"/>
<path d="M2558 3478 c-9 -17 -13 -158 -16 -545 -2 -288 -1 -523 2 -523 4 0 23
10 44 23 20 13 77 43 126 67 166 84 234 176 207 280 -16 60 -36 100 -69 136
-75 84 -141 162 -158 189 -10 17 -32 47 -49 67 -58 70 -75 167 -49 296 5 25 3
32 -10 32 -8 0 -21 -10 -28 -22z"/>
<path d="M2431 3434 c0 -11 3 -14 6 -6 3 7 2 16 -1 19 -3 4 -6 -2 -5 -13z"/>
<path d="M2418 3375 c-10 -13 -18 -30 -18 -38 0 -34 -37 -127 -74 -187 -62
-100 -86 -132 -182 -236 -49 -54 -109 -119 -133 -146 -48 -53 -65 -58 -81 -27
-24 43 14 155 87 265 71 105 88 150 97 260 l5 62 -85 -84 c-47 -45 -94 -86
-105 -89 -10 -4 -19 -11 -19 -16 0 -5 -4 -9 -9 -9 -6 0 -30 -13 -54 -30 -25
-16 -52 -30 -60 -30 -8 0 -17 -4 -19 -8 -3 -9 -164 -62 -186 -62 -25 0 -10 23
59 92 50 49 69 75 66 88 -3 11 0 17 7 14 14 -5 47 62 39 82 -4 10 -10 8 -26
-8 -19 -18 -116 -85 -182 -125 -129 -79 -279 -109 -401 -78 -36 9 -68 14 -72
11 -3 -3 2 -6 11 -6 10 0 17 -4 17 -10 0 -5 7 -10 16 -10 19 0 14 -21 -7 -30
-8 -4 -25 -12 -37 -19 -13 -7 -61 -14 -105 -15 -45 -2 -71 0 -57 3 l25 7 -22
12 c-12 7 -29 9 -38 6 -9 -4 -24 1 -34 10 -20 19 -31 12 -31 -19 0 -21 -6 -23
-109 -29 -106 -7 -194 4 -207 25 -3 5 -45 9 -95 9 -72 0 -89 -3 -89 -15 0 -20
-14 -19 -35 1 -12 12 -13 19 -4 30 9 11 7 14 -13 14 -34 0 -79 23 -73 37 2 7
0 15 -5 18 -5 3 -8 27 -5 53 3 35 1 31 -7 -15 -6 -35 -15 -63 -19 -63 -5 0 -9
-15 -9 -34 0 -19 -4 -38 -10 -41 -5 -3 -9 -16 -9 -28 0 -12 -5 -67 -12 -122
-17 -140 -23 -427 -10 -505 6 -36 15 -105 20 -155 36 -334 173 -696 383 -1008
43 -65 85 -125 93 -135 291 -357 535 -563 863 -726 452 -227 897 -292 1432
-212 90 14 298 65 345 85 11 5 43 17 70 26 166 58 421 197 595 323 209 152
379 326 547 557 41 57 193 309 193 321 0 1 14 33 31 71 16 37 34 77 38 88 5
11 14 33 20 48 10 26 31 89 60 182 10 31 28 106 54 230 14 62 22 107 34 195 7
47 11 475 5 435 -7 -39 -8 -40 -45 -39 -20 1 -46 9 -56 18 -9 9 -29 16 -42 16
-14 0 -29 4 -35 9 -5 5 -29 11 -52 14 -40 5 -43 3 -39 -14 6 -24 -26 -26 -45
-3 -44 54 -58 62 -100 56 -30 -3 -39 -2 -34 6 5 8 -1 12 -18 12 -13 0 -26 6
-29 13 -3 9 -7 9 -20 -2 -14 -11 -22 -11 -51 3 -19 9 -39 16 -45 16 -6 0 -11
4 -11 9 0 5 -15 13 -32 16 -18 4 -37 11 -43 15 -19 14 -68 21 -74 11 -10 -16
-51 -1 -51 19 0 28 -26 43 -66 37 -47 -8 -82 7 -94 38 -9 24 -12 25 -63 19
-36 -4 -57 -3 -61 5 -4 6 -12 9 -17 6 -21 -13 -30 8 -9 22 20 14 20 16 3 28
-15 11 -21 10 -40 -11 -21 -23 -63 -33 -63 -16 0 20 61 64 92 67 68 6 60 9
-42 15 -115 8 -187 23 -235 50 -32 18 -33 18 -61 -6 -21 -17 -24 -23 -13 -24
9 0 22 7 29 15 7 8 17 12 23 8 6 -4 1 -13 -12 -24 -12 -10 -20 -23 -17 -28 4
-5 1 -13 -5 -16 -6 -4 -13 2 -16 14 -5 19 -33 31 -33 14 1 -14 27 -43 39 -43
6 0 11 -5 11 -10 0 -17 -116 6 -187 36 -17 8 -38 14 -46 14 -9 0 -17 4 -19 8
-1 4 -21 19 -43 32 -39 23 -39 23 -21 2 21 -24 15 -42 -8 -23 -10 8 -16 9 -21
1 -10 -17 -32 -11 -38 10 -3 11 -10 20 -16 20 -6 0 -8 -6 -5 -14 8 -22 -34
-31 -55 -12 -10 9 -21 16 -25 16 -12 0 15 -42 65 -102 70 -85 91 -137 91 -233
0 -100 -21 -152 -98 -235 -64 -68 -148 -126 -284 -196 -52 -26 -111 -58 -131
-70 l-36 -22 -7 -269 c-3 -147 -7 -311 -8 -363 l-2 -95 25 3 c39 5 150 41 199
64 110 52 160 115 160 199 0 102 -83 184 -240 238 l-75 26 -3 41 c-2 22 2 53
8 68 10 28 12 28 63 22 130 -17 299 -114 372 -214 94 -130 80 -274 -39 -393
-54 -53 -204 -127 -354 -175 l-122 -38 0 -177 c0 -198 -7 -181 75 -195 59 -10
142 -52 170 -86 77 -91 -35 -203 -252 -252 -149 -33 -261 -13 -345 63 -27 24
-56 57 -64 74 -40 76 32 186 131 202 l40 6 -30 -14 c-16 -8 -47 -33 -67 -56
-32 -34 -38 -48 -38 -86 0 -88 101 -155 235 -155 104 0 95 -32 95 336 0 178
-4 324 -8 324 -20 0 -129 -42 -169 -65 -91 -54 -63 -125 82 -212 88 -52 90
-63 9 -63 -75 0 -139 27 -205 87 -57 51 -82 105 -76 161 10 94 97 165 267 219
47 15 90 31 96 35 10 7 8 687 -3 698 -8 9 -234 -113 -264 -143 -56 -55 -27
-133 75 -201 44 -29 56 -43 56 -63 0 -25 -2 -26 -48 -20 -58 7 -145 44 -189
81 -48 40 -85 110 -85 160 0 106 83 188 292 288 80 39 148 75 153 82 8 12 6
812 -3 942 -5 81 -5 82 -22 59z m-688 -134 c-10 -20 -30 -37 -30 -27 0 6 33
46 38 46 1 0 -2 -9 -8 -19z m326 -148 c-10 -10 -19 5 -10 18 6 11 8 11 12 0 2
-7 1 -15 -2 -18z m-26 -23 c0 -5 -5 -10 -11 -10 -5 0 -7 5 -4 10 3 6 8 10 11
10 2 0 4 -4 4 -10z m1434 -22 c-1 -13 -3 -26 -3 -30 -1 -5 -5 -8 -11 -8 -15 0
-12 47 3 53 6 3 12 6 13 6 0 1 0 -9 -2 -21z m93 -4 c-3 -3 -12 -4 -19 -1 -8 3
-5 6 6 6 11 1 17 -2 13 -5z m1153 -387 c0 -2 -8 -11 -18 -21 -18 -15 -20 -15
-37 4 -18 20 -18 20 18 20 21 0 37 -2 37 -3z"/>
<path d="M1425 3310 c-3 -5 -1 -10 4 -10 6 0 11 5 11 10 0 6 -2 10 -4 10 -3 0
-8 -4 -11 -10z"/>
<path d="M1763 3305 c-3 -9 -3 -18 -1 -21 3 -3 8 4 11 16 6 23 -1 27 -10 5z"/>
<path d="M1375 3275 c-17 -13 -47 -38 -69 -55 -21 -16 -36 -30 -33 -30 8 0 95
59 121 82 31 28 14 30 -19 3z"/>
<path d="M3185 3268 c4 -13 11 -27 16 -32 5 -6 9 -18 9 -27 0 -9 7 -22 15 -29
12 -10 15 -10 15 2 0 8 -6 20 -12 26 -10 10 -10 14 0 21 9 6 6 14 -12 34 -31
33 -40 34 -31 5z"/>
<path d="M201 3264 c0 -11 3 -14 6 -6 3 7 2 16 -1 19 -3 4 -6 -2 -5 -13z"/>
<path d="M3250 3221 c0 -10 19 -25 25 -20 1 2 -3 10 -11 17 -8 7 -14 8 -14 3z"/>
<path d="M2891 3144 c0 -11 3 -14 6 -6 3 7 2 16 -1 19 -3 4 -6 -2 -5 -13z"/>
<path d="M3350 3149 c0 -5 9 -9 20 -9 11 0 20 2 20 4 0 2 -9 6 -20 9 -11 3
-20 1 -20 -4z"/>
<path d="M1110 3140 l-25 -8 28 -1 c15 -1 27 4 27 9 0 6 -1 10 -2 9 -2 -1 -14
-5 -28 -9z"/>
<path d="M3738 3143 c7 -3 16 -2 19 1 4 3 -2 6 -13 5 -11 0 -14 -3 -6 -6z"/>
<path d="M3260 3121 c0 -6 4 -13 10 -16 6 -3 7 1 4 9 -7 18 -14 21 -14 7z"/>
<path d="M3380 3120 c-13 -9 -13 -10 0 -10 8 0 22 5 30 10 13 9 13 10 0 10 -8
0 -22 -5 -30 -10z"/>
<path d="M1040 3089 c0 -5 5 -7 10 -4 6 3 10 8 10 11 0 2 -4 4 -10 4 -5 0 -10
-5 -10 -11z"/>
<path d="M968 3063 c7 -3 16 -2 19 1 4 3 -2 6 -13 5 -11 0 -14 -3 -6 -6z"/>
<path d="M3818 3063 c6 -2 18 -2 25 0 6 3 1 5 -13 5 -14 0 -19 -2 -12 -5z"/>
<path d="M948 3003 c7 -3 16 -2 19 1 4 3 -2 6 -13 5 -11 0 -14 -3 -6 -6z"/>
<path d="M3988 2923 c7 -3 16 -2 19 1 4 3 -2 6 -13 5 -11 0 -14 -3 -6 -6z"/>
<path d="M2510 839 c0 -62 -5 -119 -11 -131 -11 -20 -10 -21 35 -15 63 9 149
51 181 88 52 62 24 103 -97 143 -115 39 -108 44 -108 -85z"/>
</g>
</svg>
