<?xml version="1.0" standalone="no"?>
<!DOCTYPE svg PUBLIC "-//W3C//DTD SVG 20010904//EN"
 "http://www.w3.org/TR/2001/REC-SVG-20010904/DTD/svg10.dtd">
<svg version="1.0" xmlns="http://www.w3.org/2000/svg"
 width="309.000000pt" height="202.000000pt" viewBox="0 0 309.000000 202.000000"
 preserveAspectRatio="xMidYMid meet">

<g transform="translate(0.000000,202.000000) scale(0.100000,-0.100000)"
fill="#000000" stroke="none">
<path d="M2 1913 l3 -108 79 -3 c53 -2 96 3 132 14 55 17 92 44 60 44 -31 0
-16 28 19 34 46 9 57 31 39 81 -7 22 -14 41 -14 43 0 1 -72 2 -160 2 l-161 0
3 -107z m232 44 c-14 -23 -28 -50 -31 -60 -8 -25 -39 -17 -36 10 2 14 -5 23
-20 27 -21 5 -20 7 15 31 43 29 80 45 90 38 4 -2 -4 -23 -18 -46z"/>
<path d="M1240 1850 c0 -132 -6 -212 -25 -344 -19 -126 -23 -186 -18 -226 l8
-55 110 -12 c61 -7 115 -11 122 -8 14 5 71 179 80 244 3 25 15 64 27 87 55
107 90 171 107 193 11 13 19 29 19 36 0 6 -22 40 -50 76 -27 35 -59 90 -71
121 -24 65 -35 69 -94 41 -29 -14 -38 -15 -44 -4 -5 8 -38 14 -90 17 l-81 5 0
-171z"/>
<path d="M2565 1978 c-20 -24 -47 -54 -59 -68 -29 -34 -70 -114 -90 -176 -9
-28 -28 -66 -42 -85 -21 -29 -25 -44 -23 -104 1 -73 -7 -95 -97 -252 -25 -43
-31 -73 -15 -73 5 0 20 21 34 48 77 143 82 151 107 155 31 6 36 2 21 -17 -7
-8 -10 -20 -6 -26 9 -14 42 -13 48 3 3 8 10 7 26 -7 26 -23 26 -31 2 -55 -10
-10 -30 -45 -45 -77 -15 -32 -35 -67 -44 -77 -27 -30 -86 -57 -103 -46 -24 15
-41 11 -34 -10 4 -12 -4 -28 -24 -47 l-30 -30 27 -31 c15 -17 37 -36 50 -43
14 -6 21 -17 18 -25 -7 -19 3 -24 55 -30 23 -3 49 -11 57 -17 8 -7 59 -75 113
-152 112 -156 112 -159 24 -185 -46 -13 -79 -40 -35 -28 12 3 79 13 149 21
389 47 373 46 401 21 19 -18 20 -17 20 9 0 16 4 25 10 21 6 -4 10 19 10 63 0
74 -15 102 -56 102 -10 0 -43 11 -72 25 -30 14 -69 25 -88 25 -23 0 -34 5 -34
14 0 8 -16 20 -35 27 -36 13 -43 32 -26 74 5 11 4 28 -1 38 -7 13 -5 17 8 17
22 0 84 67 84 90 0 10 -7 23 -15 30 -19 16 -19 34 -1 49 21 18 75 153 83 207
9 68 -16 54 -37 -22 -18 -66 -41 -113 -76 -160 -22 -30 -25 -31 -66 -23 -54
10 -114 -5 -128 -32 -10 -17 -8 -19 12 -14 30 8 139 -27 153 -49 17 -29 -19
-46 -98 -46 -61 0 -68 -2 -63 -17 3 -10 -5 -4 -19 12 -17 20 -24 38 -21 55 3
21 2 22 -7 9 -17 -22 -40 -28 -57 -15 -8 7 -41 20 -72 30 -32 9 -58 21 -58 26
0 18 71 89 126 125 31 21 58 43 61 51 2 7 26 16 51 19 26 4 56 9 66 12 19 5
19 6 1 19 -17 13 -17 14 -1 20 14 5 15 9 4 15 -21 14 -41 10 -34 -6 7 -20 -49
-21 -94 -1 -26 11 -29 14 -15 20 10 3 23 1 31 -4 9 -9 15 -6 24 10 6 11 8 25
5 30 -6 9 5 12 45 13 29 1 99 -26 97 -37 -4 -23 87 -13 152 16 35 15 72 28 82
28 10 0 34 15 54 32 l35 33 0 257 0 258 -244 0 -244 0 -37 -42z m30 -518 c3
-5 -1 -10 -10 -10 -9 0 -13 5 -10 10 3 6 8 10 10 10 2 0 7 -4 10 -10z m-25
-160 c0 -5 -4 -10 -10 -10 -5 0 -10 5 -10 10 0 6 5 10 10 10 6 0 10 -4 10 -10z
m224 -191 c23 -11 44 -39 28 -39 -4 0 -25 12 -47 25 -41 25 -28 35 19 14z
m-269 -138 c3 -5 1 -12 -4 -15 -13 -8 -42 4 -35 15 7 12 31 12 39 0z m175 -14
c0 -19 -10 -27 -26 -20 -21 8 -17 33 6 33 11 0 20 -6 20 -13z m-290 -1 c0 -3
-4 -8 -10 -11 -5 -3 -10 -1 -10 4 0 6 5 11 10 11 6 0 10 -2 10 -4z m257 -212
c-3 -3 -12 -4 -19 -1 -8 3 -5 6 6 6 11 1 17 -2 13 -5z m6 -45 c-15 -15 -75
-17 -80 -1 -3 8 9 12 43 12 35 0 45 -3 37 -11z m14 -74 c19 -8 47 -15 62 -16
18 0 11 -5 -26 -16 -62 -18 -83 -13 -83 22 0 29 0 29 47 10z"/>
<path d="M380 2005 c0 -18 51 -107 154 -269 31 -49 56 -97 56 -106 0 -17 19
-30 41 -30 19 0 7 40 -27 90 -19 28 -60 93 -90 143 -78 129 -134 201 -134 172z"/>
<path d="M0 1783 c0 -16 82 -113 91 -107 6 3 18 -1 27 -8 34 -29 45 -32 33 -9
-6 11 -24 24 -39 27 -30 7 -62 32 -62 48 -1 21 -50 70 -50 49z"/>
<path d="M1675 1682 c-27 -19 -135 -303 -135 -354 0 -17 17 -34 26 -26 2 3 7
34 9 69 4 41 15 83 33 118 32 64 60 77 54 26 -2 -19 1 -50 8 -70 10 -30 10
-39 -1 -46 -11 -6 -10 -12 5 -28 27 -30 12 -42 -31 -25 -25 11 -39 12 -46 5
-8 -8 -7 -11 2 -11 19 0 81 -31 77 -39 -2 -3 2 -11 9 -18 17 -15 26 4 19 39
-4 21 -4 21 5 3 5 -11 10 -15 10 -8 1 11 24 3 70 -24 2 -2 -6 -28 -18 -59 -11
-31 -21 -61 -21 -67 1 -18 70 133 70 151 0 13 3 13 12 4 7 -7 19 -12 27 -12
10 0 8 7 -9 25 -13 14 -20 28 -17 32 4 3 2 12 -4 19 -6 7 -7 19 -3 26 14 23
14 65 -1 84 -17 22 -22 18 -59 -48 -13 -24 -20 -29 -24 -18 -3 8 -11 20 -18
25 -7 6 -16 22 -20 38 -5 23 -3 27 17 28 64 3 64 3 61 32 -3 32 13 36 28 7 16
-30 24 -24 37 28 10 42 10 49 -8 64 -30 26 -141 47 -164 30z m103 -289 c2 -16
4 -36 5 -45 1 -10 5 -18 9 -18 4 0 8 -4 8 -10 0 -17 -68 22 -73 41 -3 11 -1
19 4 19 4 0 5 7 2 17 -4 11 -3 14 5 9 7 -4 15 0 18 9 8 21 16 12 22 -22z"/>
<path d="M180 1625 c0 -3 7 -17 16 -30 9 -13 17 -40 19 -58 3 -36 22 -74 41
-81 17 -7 -10 86 -40 133 -24 38 -36 49 -36 36z"/>
<path d="M587 1593 c-10 -15 4 -51 21 -58 27 -10 31 9 8 39 -13 15 -26 24 -29
19z"/>
<path d="M365 1560 c10 -85 17 -107 40 -135 l24 -30 -18 60 c-11 33 -26 78
-35 100 l-16 40 5 -35z"/>
<path d="M40 1499 c9 -15 8 -31 -3 -63 -12 -35 -12 -48 -2 -73 13 -29 32 -49
40 -41 2 2 -2 16 -10 30 -11 23 -11 35 1 84 17 64 13 84 -16 84 -18 0 -19 -3
-10 -21z"/>
<path d="M580 1515 c0 -14 21 -45 31 -45 18 0 5 45 -13 48 -10 2 -18 1 -18 -3z"/>
<path d="M2117 1493 c-4 -3 -7 -11 -7 -17 0 -6 5 -5 12 2 6 6 9 14 7 17 -3 3
-9 2 -12 -2z"/>
<path d="M1853 1467 c0 -7 -3 -24 -6 -38 -4 -15 -1 -33 7 -44 11 -16 14 -13
19 30 4 26 4 51 1 56 -8 13 -21 11 -21 -4z"/>
<path d="M737 1464 c-11 -19 -18 -92 -9 -98 11 -7 31 79 22 94 -4 7 -10 8 -13
4z"/>
<path d="M810 1405 c-7 -14 -19 -25 -26 -25 -8 0 -16 -11 -20 -25 -7 -27 0
-55 13 -55 11 0 63 94 63 114 0 24 -15 19 -30 -9z"/>
<path d="M340 1371 c0 -5 5 -13 10 -16 6 -3 10 -2 10 4 0 5 -4 13 -10 16 -5 3
-10 2 -10 -4z"/>
<path d="M1640 1299 c0 -5 5 -7 10 -4 6 3 10 8 10 11 0 2 -4 4 -10 4 -5 0 -10
-5 -10 -11z"/>
<path d="M90 1285 c0 -5 5 -17 10 -25 5 -8 10 -10 10 -5 0 6 -5 17 -10 25 -5
8 -10 11 -10 5z"/>
<path d="M1568 1268 c18 -18 15 -28 -8 -28 -11 0 -20 -4 -20 -10 0 -5 5 -10
10 -10 6 0 10 -7 10 -15 0 -8 -8 -15 -17 -15 -15 0 -15 -2 -4 -9 10 -6 12 -21
8 -50 -6 -50 5 -53 23 -6 16 42 34 47 26 8 -3 -16 -8 -49 -12 -76 -6 -47 -17
-66 -29 -48 -6 11 -42 6 -60 -9 -6 -5 -49 -15 -95 -21 -65 -9 -84 -9 -90 1
-15 24 -30 0 -24 -39 4 -26 1 -48 -10 -70 -12 -23 -17 -60 -18 -134 -1 -120
27 -436 40 -449 5 -5 69 -2 158 7 82 9 188 19 236 21 75 4 87 2 82 -11 -5 -11
0 -14 17 -13 13 2 24 -3 25 -9 3 -26 5 -28 14 -13 8 12 11 11 16 -8 5 -16 12
-21 24 -17 12 4 19 -1 23 -15 3 -13 10 -18 21 -14 11 4 16 1 16 -11 0 -11 6
-15 19 -10 13 4 20 0 24 -15 3 -13 10 -18 21 -14 11 4 16 1 16 -10 0 -9 8 -16
19 -16 10 0 21 -7 25 -15 3 -8 12 -12 21 -9 10 4 15 0 15 -10 0 -9 8 -16 20
-16 11 0 20 4 20 8 0 8 -139 104 -250 172 -71 44 -77 54 -38 60 28 4 34 10 42
44 6 29 5 51 -7 85 -19 56 -51 211 -44 217 6 6 67 -99 67 -113 0 -6 9 -22 21
-37 11 -15 18 -33 15 -42 -3 -8 -2 -13 3 -10 4 3 14 -7 22 -22 7 -15 24 -40
37 -56 13 -16 21 -34 18 -41 -5 -13 35 -39 78 -49 26 -6 27 -5 13 9 -9 8 -20
15 -26 15 -12 0 -33 35 -25 42 5 6 -11 37 -100 193 -29 50 -67 120 -86 157
-22 43 -41 68 -52 68 -17 0 -35 64 -44 154 -5 55 -18 66 -76 66 l-49 0 3 32
c2 20 11 36 23 43 14 7 19 18 17 37 -2 19 2 28 17 33 23 7 28 21 10 27 -18 6
-1 46 23 53 12 4 16 11 11 16 -6 6 -26 3 -53 -6 -42 -15 -45 -15 -82 10 -40
27 -72 35 -50 13z m54 -59 c-5 -11 -11 -20 -15 -20 -4 1 -12 1 -17 1 -7 0 -7
6 0 20 15 28 42 27 32 -1z m43 -47 c-6 -16 -7 -16 -17 2 -8 14 -7 21 3 27 17
10 24 -4 14 -29z m-10 -49 c-4 -10 -10 -26 -12 -35 -3 -10 -12 -18 -20 -18
-30 0 1 69 31 70 4 0 5 -8 1 -17z m-20 -92 c6 -30 -8 -71 -24 -71 -23 0 -33
30 -21 65 14 43 36 46 45 6z m-63 -138 c-3 -16 -7 -22 -10 -15 -4 13 4 42 11
42 2 0 2 -12 -1 -27z m108 -28 c0 -21 -44 -34 -65 -19 -10 8 -15 14 -10 14 5
0 4 5 -3 12 -7 7 -12 16 -12 22 0 5 3 6 7 3 3 -4 11 -3 17 3 8 6 12 1 14 -17
1 -15 4 -29 7 -31 5 -5 9 41 6 63 -1 6 8 -1 19 -14 11 -13 20 -29 20 -36z
m-310 34 c-11 -8 -8 -9 15 -4 61 13 69 11 79 -18 7 -19 6 -31 -1 -38 -9 -9
-11 -7 -7 7 3 10 -2 28 -10 39 -14 19 -14 17 -9 -20 4 -30 1 -44 -10 -54 -23
-19 -60 -9 -74 19 -8 15 -13 19 -13 9 0 -8 11 -26 25 -39 23 -21 29 -23 55
-13 35 13 40 9 9 -7 -34 -19 -74 -3 -92 36 -28 58 -17 94 28 94 17 0 18 -2 5
-11z m337 -21 c-3 -8 -6 -5 -6 6 -1 11 2 17 5 13 3 -3 4 -12 1 -19z m-197 -68
c0 -5 -4 -10 -10 -10 -5 0 -10 5 -10 10 0 6 5 10 10 10 6 0 10 -4 10 -10z
m260 -35 c0 -2 -7 -5 -15 -9 -9 -3 -15 0 -15 9 0 9 6 12 15 9 8 -4 15 -7 15
-9z m-125 -5 c-4 -6 6 -10 24 -10 36 0 44 -11 44 -64 0 -36 1 -38 10 -18 14
31 -2 73 -33 89 -21 11 -22 13 -6 13 50 0 70 -58 42 -125 -15 -36 -12 -45 13
-44 12 0 11 3 -4 9 -19 8 -19 9 4 9 16 1 22 -3 18 -13 -3 -8 1 -29 9 -45 12
-24 13 -38 4 -73 -13 -47 -32 -68 -65 -68 -30 0 -64 27 -47 38 10 7 10 14 -3
38 -8 16 -12 37 -9 48 4 13 2 17 -7 14 -8 -3 -13 -17 -12 -34 2 -28 2 -28 -9
-6 -9 19 -8 27 10 51 l20 28 -29 44 c-36 55 -39 106 -6 119 30 12 39 12 32 0z
m-135 -20 c0 -5 -5 -10 -11 -10 -5 0 -7 5 -4 10 3 6 8 10 11 10 2 0 4 -4 4
-10z m-35 -17 c25 -24 14 -91 -19 -120 -42 -35 -95 -11 -117 54 -9 28 -8 38 5
58 14 21 24 25 66 25 32 0 54 -6 65 -17z m312 -80 c-3 -3 -10 -2 -16 2 -7 4
-7 10 2 20 10 11 13 11 15 -2 2 -8 1 -17 -1 -20z m-247 -11 c0 -15 -11 -21
-27 -15 -12 5 -12 7 -1 14 17 11 28 11 28 1z m250 -42 c0 -5 -4 -10 -10 -10
-5 0 -10 5 -10 10 0 6 5 10 10 10 6 0 10 -4 10 -10z m-300 -40 c11 -11 20 -26
19 -32 0 -10 -2 -9 -6 0 -3 8 -19 22 -37 33 -21 13 -25 19 -13 19 9 0 26 -9
37 -20z m-75 3 c-28 -7 -45 -23 -45 -41 0 -13 3 -12 15 5 17 24 59 35 79 19
13 -10 22 -41 16 -58 -1 -5 -3 -14 -4 -20 0 -7 -9 -14 -18 -16 -12 -2 -18 5
-21 25 -4 26 -4 25 -6 -6 -1 -33 -1 -34 -21 -16 -26 24 -39 11 -15 -15 24 -27
70 -26 89 2 9 12 16 18 16 14 0 -5 -7 -18 -17 -28 -16 -18 -48 -23 -78 -12
-19 8 -55 75 -55 103 0 28 27 51 58 50 21 -1 23 -2 7 -6z m546 -38 c7 -13 3
-12 -10 5 -11 14 -21 30 -21 35 0 11 14 -7 31 -40z m-621 19 c0 -8 -5 -12 -10
-9 -6 4 -8 11 -5 16 9 14 15 11 15 -7z m167 -66 c-3 -7 -5 -2 -5 12 0 14 2 19
5 13 2 -7 2 -19 0 -25z m323 2 c0 -22 -7 -25 -29 -11 -16 10 -6 31 15 31 8 0
14 -9 14 -20z m-270 -30 c0 -5 -4 -10 -10 -10 -5 0 -10 5 -10 10 0 6 5 10 10
10 6 0 10 -4 10 -10z"/>
<path d="M1603 696 c4 -10 7 -22 7 -26 0 -5 10 -15 23 -21 21 -12 21 -11 5 8
-10 11 -18 25 -18 31 0 6 -5 14 -12 18 -8 5 -9 2 -5 -10z"/>
<path d="M1752 535 c0 -16 2 -22 5 -12 2 9 2 23 0 30 -3 6 -5 -1 -5 -18z"/>
<path d="M1746 485 c-9 -26 -7 -32 5 -12 6 10 9 21 6 23 -2 3 -7 -2 -11 -11z"/>
<path d="M1417 723 c24 -3 34 -10 39 -28 9 -36 1 -58 -26 -72 -20 -10 -27 -9
-41 2 -8 8 -19 15 -24 15 -4 0 3 -9 16 -20 36 -32 70 -23 88 23 21 56 4 88
-46 85 -37 -1 -37 -1 -6 -5z"/>
<path d="M1351 664 c0 -11 3 -14 6 -6 3 7 2 16 -1 19 -3 4 -6 -2 -5 -13z"/>
<path d="M2040 1251 c-25 -11 -48 -17 -53 -14 -9 5 -37 -22 -37 -37 0 -7 8 -9
23 -4 12 4 51 15 87 24 44 11 66 22 68 33 5 23 -29 22 -88 -2z"/>
<path d="M798 1141 c-3 -50 0 -104 7 -130 12 -46 12 -46 17 54 4 68 2 110 -7
130 -11 28 -12 24 -17 -54z"/>
<path d="M1155 1180 c-22 -11 -59 -24 -83 -30 l-42 -11 7 -42 c3 -23 14 -61
25 -85 23 -56 23 -55 -11 -47 -32 7 -51 -9 -32 -28 6 -6 11 -33 11 -59 0 -47
1 -48 30 -48 23 0 30 -4 30 -20 0 -11 20 -35 51 -58 45 -34 54 -38 75 -28 13
6 25 18 25 26 3 25 -2 64 -10 75 -4 5 -8 49 -10 97 -2 90 9 116 34 82 19 -27
25 -15 15 31 -5 21 -6 43 -3 48 3 6 2 7 -4 4 -11 -7 -52 28 -54 46 -1 7 0 24
1 40 2 32 -2 32 -55 7z m43 -61 c7 -12 12 -22 10 -23 -2 -2 -33 -19 -71 -39
l-68 -37 -9 26 c-6 14 -10 27 -10 29 0 8 105 65 120 65 8 0 21 -9 28 -21z"/>
<path d="M555 1130 c-3 -5 -17 -10 -31 -10 -13 0 -24 -1 -24 -2 0 -2 7 -24 14
-49 16 -51 14 -178 -4 -269 -10 -52 -9 -56 12 -73 13 -10 35 -29 50 -42 14
-14 47 -34 71 -44 30 -13 51 -31 62 -50 20 -40 41 -39 49 0 12 61 7 85 -19 99
-14 8 -24 21 -23 29 4 19 48 28 57 12 5 -8 13 -7 26 3 18 13 17 14 -13 30 -17
9 -46 16 -64 16 -35 0 -67 15 -56 25 3 4 2 20 -3 37 -6 22 -4 39 6 59 20 37
19 68 -3 100 -102 154 -96 147 -107 129z m122 -386 c-3 -3 -12 -4 -19 -1 -8 3
-5 6 6 6 11 1 17 -2 13 -5z"/>
<path d="M2975 980 c-3 -5 -1 -10 4 -10 6 0 11 5 11 10 0 6 -2 10 -4 10 -3 0
-8 -4 -11 -10z"/>
<path d="M847 904 c-4 -4 -7 -14 -7 -23 0 -11 3 -12 11 -4 6 6 10 16 7 23 -2
6 -7 8 -11 4z"/>
<path d="M1957 875 c-26 -12 -51 -25 -54 -29 -3 -3 14 -28 40 -54 51 -55 87
-119 87 -155 0 -13 9 -36 21 -51 18 -22 22 -24 35 -12 8 8 14 24 14 36 0 11 7
23 15 26 8 3 17 16 21 27 8 26 40 55 72 68 32 12 27 26 -18 49 -23 11 -63 43
-91 70 -58 56 -72 59 -142 25z"/>
<path d="M375 831 c-3 -5 -1 -12 5 -16 5 -3 10 1 10 9 0 18 -6 21 -15 7z"/>
<path d="M2270 672 c0 -11 51 -35 58 -28 3 3 -1 12 -8 21 -13 16 -50 21 -50 7z"/>
<path d="M2217 654 c-3 -4 -2 -16 4 -26 8 -15 14 -17 22 -9 8 8 7 15 -4 26 -8
9 -18 13 -22 9z"/>
<path d="M817 590 c-12 -31 -13 -40 -3 -40 8 0 16 17 19 37 9 50 3 51 -16 3z"/>
<path d="M956 605 c-3 -9 -6 -24 -5 -33 0 -9 5 -4 10 12 9 32 6 48 -5 21z"/>
<path d="M891 594 c0 -11 3 -14 6 -6 3 7 2 16 -1 19 -3 4 -6 -2 -5 -13z"/>
<path d="M0 290 l0 -290 528 2 c290 1 480 4 422 5 -161 4 -154 0 -146 86 l6
72 -17 -35 c-10 -19 -18 -36 -19 -38 -1 -2 -47 12 -102 31 -94 32 -175 79
-251 146 -46 40 -61 21 -61 -79 1 -44 3 -51 11 -36 9 14 13 16 20 5 6 -11 14
-11 41 -2 22 8 46 9 72 3 54 -12 137 -53 133 -65 -2 -6 -27 -9 -56 -7 -32 2
-69 -3 -97 -14 -44 -17 -46 -17 -87 6 -90 50 -247 152 -247 160 0 15 70 -21
116 -59 20 -17 76 -43 81 -38 8 8 -72 111 -115 148 -40 35 -64 71 -60 88 4 13
-19 45 -67 96 -46 47 -75 85 -75 97 0 4 -7 8 -15 8 -13 0 -15 -39 -15 -290z
m147 43 c-23 -12 -47 -2 -47 22 0 9 8 10 35 1 33 -10 34 -11 12 -23z"/>
<path d="M2188 573 c6 -2 12 -11 12 -18 0 -7 11 -20 25 -29 14 -9 25 -12 25
-7 0 13 -52 61 -65 60 -5 0 -4 -3 3 -6z"/>
<path d="M865 549 c-4 -6 -5 -13 -2 -16 7 -7 27 6 27 18 0 12 -17 12 -25 -2z"/>
<path d="M2318 523 c11 -21 23 -46 26 -55 3 -12 14 -17 31 -16 29 3 29 2 14
31 -17 33 -61 77 -77 77 -10 0 -9 -9 6 -37z"/>
<path d="M936 509 c-3 -17 -6 -39 -6 -48 1 -14 2 -14 9 -1 13 23 21 80 12 80
-5 0 -11 -14 -15 -31z"/>
<path d="M2210 470 c0 -5 7 -10 15 -10 8 0 15 5 15 10 0 6 -7 10 -15 10 -8 0
-15 -4 -15 -10z"/>
<path d="M2286 463 c-3 -4 -6 -19 -6 -34 0 -33 36 -59 83 -59 27 0 36 5 41 23
10 38 8 53 -6 39 -18 -18 -38 -15 -73 13 -18 13 -35 21 -39 18z"/>
<path d="M2462 428 c-13 -19 -17 -35 -11 -39 6 -3 11 -17 13 -30 1 -14 5 -30
9 -36 4 -6 4 -18 1 -27 -4 -10 0 -18 10 -22 9 -3 16 -12 16 -20 0 -8 4 -14 8
-14 4 0 16 -28 26 -62 10 -35 22 -68 27 -74 6 -7 13 -31 17 -55 7 -40 10 -44
40 -47 38 -4 38 0 12 64 -10 27 -45 123 -76 214 -31 91 -60 169 -64 173 -4 5
-17 -7 -28 -25z"/>
<path d="M2226 422 c-3 -5 1 -15 9 -22 16 -14 20 -3 6 19 -5 8 -11 9 -15 3z"/>
<path d="M210 360 c0 -5 5 -10 11 -10 5 0 7 5 4 10 -3 6 -8 10 -11 10 -2 0 -4
-4 -4 -10z"/>
<path d="M900 340 c0 -5 7 -10 15 -10 8 0 15 5 15 10 0 6 -7 10 -15 10 -8 0
-15 -4 -15 -10z"/>
<path d="M2985 329 c-49 -11 -153 -31 -230 -46 -77 -14 -142 -27 -143 -29 -4
-3 48 -149 77 -217 l16 -39 180 4 c99 2 186 7 193 11 9 6 12 52 12 173 0 90
-3 163 -7 163 -5 -1 -48 -10 -98 -20z"/>
<path d="M835 220 c-20 -22 -13 -39 8 -21 8 6 22 8 32 5 15 -6 16 -5 4 15 -17
26 -21 26 -44 1z"/>
<path d="M1240 143 c0 -32 16 -46 44 -39 31 8 34 31 7 46 -29 15 -51 12 -51
-7z"/>
<path d="M1328 98 c-31 -33 -33 -38 -15 -38 12 0 19 7 56 53 24 31 -11 18 -41
-15z"/>
<path d="M460 100 c0 -5 10 -10 23 -10 18 0 19 2 7 10 -19 13 -30 13 -30 0z"/>
<path d="M1082 19 c-11 -17 -9 -19 13 -19 27 0 32 12 12 28 -10 8 -16 6 -25
-9z"/>
</g>
</svg>
